<svg id="Layer_2" data-name="Layer 2" xmlns="http://www.w3.org/2000/svg" viewBox="0 0 846.42484 411.16282"><defs><style>.cls-1{fill:#d1bc52;}.cls-1,.cls-2,.cls-3,.cls-4,.cls-5,.cls-6{stroke:#000;stroke-miterlimit:10;stroke-width:4px;}.cls-2{fill:#a82020;}.cls-3{fill:none;}.cls-4{fill:#e8bda6;}.cls-5{fill:#e5d7be;}.cls-6{fill:#c9aa7d;}</style></defs><circle class="cls-1" cx="197" cy="506.33334" r="11.99998" transform="translate(-424.72499 351.89859) rotate(-80.78252)"/><circle class="cls-1" cx="106.62621" cy="359.65913" r="12"/><circle class="cls-1" cx="697.07065" cy="49.88135" r="12"/><circle class="cls-1" cx="705.95954" cy="140.99247" r="12"/><ellipse class="cls-2" cx="429.29288" cy="223.88135" rx="29.77778" ry="40.88889"/><path class="cls-3" d="M229.44444,602.33333" transform="translate(-90.37379 -267.78531)"/><path class="cls-4" d="M573.3158,362.65564s-7.55555,13.33334-16.44446,14.66669-10.22217-9.33335-10.22217-9.33335l30.573-78.02985,122.88889-20.07024,76.35135,52.60446c2.027,3.96951,5.12928,6.64618,10.019,7.17331,7.14282,16.51919,9.5086,40.63784,7.25641,67.39489-4.10792.57306-7.31507,3.70322-9.40461,9.93845,0,0-29.2255,12.56824-40.5757,11.80264s-70.83714,10.80224-70.83714,10.80224l-50.11158,6.58932s-6.58667-8.972-5.36445-15.41642,9.44445-14.58708,15.11112-16.01576S684.22222,388.47517,689,382.55556s6.40289-16.26377,5.36811-22.88889S680,327.33333,672.77778,323.88889s-48,2.88889-48,2.88889L607.22222,349s-2.72222,12.05556-6.16666,15.61111a23.47634,23.47634,0,0,1-16.20371,7.2037C577.88889,371.88889,573.3158,362.65564,573.3158,362.65564Z" transform="translate(-90.37379 -267.78531)"/><path class="cls-3" d="M677.35072,491.66667" transform="translate(-90.37379 -267.78531)"/><path class="cls-4" d="M560.68646,332.1624l-37.61239,38.02279s1.037,9.92592,11.037,8.59259c3.51955-2.57711,12.53806-10.7888,12.53806-10.7888Z" transform="translate(-90.37379 -267.78531)"/><path class="cls-4" d="M569.68894,309.1859,523.6037,329.97833c-1.11719,3.39749,5.23688,27.4697,37.96472-.06686Z" transform="translate(-90.37379 -267.78531)"/><path class="cls-4" d="M805.78918,401.40689l128.15351-12.80475.83508-98.643L799.44446,317.66666a11.99932,11.99932,0,0,1-5.00891,9.75329,137.50543,137.50543,0,0,1,5.74292,69.98953,16.45943,16.45943,0,0,1,5.61071,3.99741Z" transform="translate(-90.37379 -267.78531)"/><path class="cls-1" d="M800.17847,397.40948c6.59161-35.38958-5.548-69.50766-5.548-69.50766-1.31054,1.11249-4.74245,1.65967-8.149,1.76484,0,0,9.265,12.4262,6.78064,67.5094C795.92212,396.68356,798.314,396.62234,800.17847,397.40948Z" transform="translate(-90.37379 -267.78531)"/><path class="cls-3" d="M508.07581,529.3423" transform="translate(-90.37379 -267.78531)"/><path class="cls-1" d="M189.36365,515.59027a12.1541,12.1541,0,0,0,6.8751,2.71649c-2.54646,31.80176-1.38971,64.2804,2.84223,97.32123a11.96193,11.96193,0,0,0-6.88152.82013C186.42216,584.54132,185.87988,550.77917,189.36365,515.59027Z" transform="translate(-90.37379 -267.78531)"/><path class="cls-3" d="M92.7037,544.55556" transform="translate(-90.37379 -267.78531)"/><path class="cls-4" d="M189.36365,517.66669l-96.66,26.88885,26.51852,130.88892q32.9408-24.77829,65.88162-49.55652a12.81356,12.81356,0,0,1,1.6369-4.62866,11.29252,11.29252,0,0,1,2.74074-3.22223,11.0091,11.0091,0,0,1,2.718-1.58893C185.5518,577.64008,186.46582,547.789,189.36365,517.66669Z" transform="translate(-90.37379 -267.78531)"/><path class="cls-4" d="M264.11111,476.77777,208.643,509.2424A11.93112,11.93112,0,0,1,202.48148,517,12.12313,12.12313,0,0,1,197,518.33331a40.36173,40.36173,0,0,0-1.12424,4.883,57.24469,57.24469,0,0,0-.54428,9.6604c-.05974,4.73364-.19137,3.3186-.32208,9.60333-.14351,6.90058-.05966,12.20551.00415,16.00214.06354,3.7807.153,6.57324.23791,9.1969.17856,5.514.34108,10.5329.74953,16.874.40723,6.32221.87277,11.06885,1.30112,15.39465.61542,6.21509,1.24844,11.53675,1.77887,15.68024a12.01411,12.01411,0,0,1,8.9496,7.08643A12.73752,12.73752,0,0,1,209,629.22223q14.33757,4.05954,28.67513,8.11914a101.67885,101.67885,0,0,1-5.94228-18.66522,105.47389,105.47389,0,0,1-2.26122-19.90375c-.07814-3.92517.10164-5.63684.41155-12.33838.24475-5.2926.53841-12.99963.67238-22.5451a58.1945,58.1945,0,0,1,4.81482-22,57.08414,57.08414,0,0,1,5.40739-9.66669,57.98948,57.98948,0,0,1,24.66669-19q15.76529-2.31583,32-4.44446,16.48668-2.15812,32.56024-3.99863a57.129,57.129,0,0,0,6.78326,3.68259,55.41017,55.41017,0,0,0,9.98981,3.50122,52.16485,52.16485,0,0,0,21.33334.59259A38.43562,38.43562,0,0,0,383.66666,505a37.72526,37.72526,0,0,0,6.88888-7.33334,11.90973,11.90973,0,0,0-3.77777-13.11112,41.49554,41.49554,0,0,1-19.33331-2.2222c-11.44528-4.36056-16.22214-8.22216-16.22223-8.22223a15.8582,15.8582,0,0,0-7.66669-4c-.72278-.119-2.22684-.301-6.68918.52-5.70547,1.04969-5.59131,1.77848-11.11874,2.87671a84.01181,84.01181,0,0,1-10.225,1.33017c-.00009,0-.99176.06677-1.96975.11521a89.12291,89.12291,0,0,1-18.77506-1.0643,78.14413,78.14413,0,0,0-30.66666,2.88888Z" transform="translate(-90.37379 -267.78531)"/><path class="cls-4" d="M296.29187,668.62622c11.94193,1.144,21.34576,2.25641,27.597,3.04047,11.70629,1.46826,18.32553,2.58557,23.55557-1.55561,1.51538-1.19989,3.13916-3.33343,6.44443-7.55554,3.46771-4.42962,6.07119-8.25958,7.77777-10.88885,10.04483,4.96887,15.20358,3.00873,17.14706,1.95947,2.67783-1.44568,5.13388-4.46112,7.22333-6.70026,5.48468-5.87768,6.384-6.8681,8.037-8.19354a33.012,33.012,0,0,1,8.10769-4.76379A50.72613,50.72613,0,0,0,415,626.11108c4.83316-4.07684,5.11484-5.71093,12.51852-14.74072,10.734-13.09149,12.92295-11.73352,15.037-17.48144,1.36151-3.70185.70334-4.94416-.77765-22.69336-.67352-8.07215-1.13806-16.1604-1.741-24.2381-.66376-8.89295-1.16855-16.087-1.48139-20.62415a9.936,9.936,0,0,0-5.77777-10.44439,10.04006,10.04006,0,0,0-12.66666,5.33331c-.2-.77252-2.1235-7.76495-8.14816-9.70371-4.32712-1.39248-8.2388.63651-10.29629,1.70371-11.12323,5.76959-13.39188,20.51257-13.77777,23.33331a35.35,35.35,0,0,0-9.55555,8.88892,37.0014,37.0014,0,0,0-6.92517,22.27771c-3.5329.47168-8.87228,1.768-12.74151,5.94452-4.66858,5.0393-4.29425,11.13849-5.71717,24.5877-.57019,5.38929-1.58819,13.46412-3.505,23.4123-.328,1.70215-2.76554,7.02533-9.33335,15.11108a103.81632,103.81632,0,0,1-30.48516,25.17c-3.54773,1.97528-7.44745,3.92725-7.44754,3.92731C299.8028,667.04657,297.776,667.97034,296.29187,668.62622Z" transform="translate(-90.37379 -267.78531)"/><path class="cls-5" d="M227.66667,590.77777a141.06384,141.06384,0,0,1,1.55556-27.11108c1.98566-12.07373,4.93806-19.08222,6.14815-21.77777a53.2057,53.2057,0,0,1,5.40739-9.66669,57.98948,57.98948,0,0,1,24.66669-19q15.76529-2.31583,32-4.44446,16.48668-2.15812,32.56024-3.99863a54.32264,54.32264,0,0,0,16.77307,7.18381c4.81271,1.14972,12.23081,2.88153,21.33334.59259a40.45638,40.45638,0,0,0,14.963-7.25924,39.99974,39.99974,0,0,0,7.48147-7.62964,11.90973,11.90973,0,0,0-3.77777-13.11112q73.66668-52.88886,147.33331-105.77777L546.64917,367.989a9.4367,9.4367,0,0,0,10.22217,9.33335,18.56075,18.56075,0,0,0,4.8753-1.8841,21.3459,21.3459,0,0,0,5.22815-4.34631,48.19116,48.19116,0,0,0,6.341-8.43628,22.36791,22.36791,0,0,0,5.24755,6.64484,9.77718,9.77718,0,0,0,6.28852,2.51434,23.51483,23.51483,0,0,0,16.20367-7.20371A46.34718,46.34718,0,0,0,607.22223,349Q616,337.88888,624.77777,326.77777c3.45392-.68652,7.4798-1.3797,11.991-1.9588,3.22424-.41388,5.21429-.57925,14.11224-1.24118,16.79169-1.24918,18.95978-1.34879,21.89673.3111,2.38269,1.34664,3.974,3.33132,7.15662,7.30065a71.30525,71.30525,0,0,1,7.71667,12.58924,126.5599,126.5599,0,0,1,6.717,15.88788A32.99843,32.99843,0,0,1,689,382.55554a94.42523,94.42523,0,0,1-24.2478,11.45264L632.55554,404.762a28.02388,28.02388,0,0,0-9.48675,6.40757c-2.29236,2.3757-5.0495,5.23312-5.62433,9.60818a16.134,16.134,0,0,0,1.01874,7.32642,24.73864,24.73864,0,0,0,4.3457,8.09l27.90637-3.66949L548.82385,500a52.87631,52.87631,0,0,0-1.57123-23.7403c-1.37707-4.48547-3.45031-10.96929-9.311-16.8641-2.565-2.57993-6.80853-6.84818-13.83228-8.16388a24.36813,24.36813,0,0,0-16.0335,2.75931,32.15408,32.15408,0,0,0-10.528,10.30255,52.92972,52.92972,0,0,0-6.53165,38.54587,39.05259,39.05259,0,0,0,17.05967,26.50284q-33.149,20.92666-66.29792,41.85327-1.61118-22.43115-3.22235-44.86225a9.93609,9.93609,0,0,0-5.77777-10.44439,10.04006,10.04006,0,0,0-12.66666,5.33331c-.2-.77252-2.1235-7.76495-8.14816-9.70371-4.32712-1.39248-8.2388.63651-10.29629,1.70371-11.12323,5.76959-13.39188,20.51257-13.77777,23.33331a35.35,35.35,0,0,0-9.55555,8.88892,37.0014,37.0014,0,0,0-6.92517,22.27771c-3.37835.41028-8.83615,1.6449-12.74151,5.94452-4.08545,4.49786-4.40573,10.07507-4.74894,14.50634a326.035,326.035,0,0,1-4.47326,33.49366c-1.21372,6.66028-5.50785,10.34759-9.33335,15.11108-5.55627,6.91858-27.28015,33.96887-58,31.77777a53.5804,53.5804,0,0,1-30-12c-8.03208-6.76843-12.15058-14.7121-14.436-19.21417-3.60531-7.10223-5.01264-12.97675-6.564-19.45245A129.98509,129.98509,0,0,1,227.66667,590.77777Z" transform="translate(-90.37379 -267.78531)"/><path class="cls-3" d="M361.66666,651.66669c1.25918-2.05756,3.17294-5.15454,5.55557-8.88892,9.12976-14.30939,10.275-14.673,11.55554-18.44446,1.72391-5.07751-.28808-4.6065-1.33331-24-.55249-10.251.03143-14.52093-2-22a58.11884,58.11884,0,0,0-4.03629-10.61114" transform="translate(-90.37379 -267.78531)"/><path class="cls-3" d="M402.1817,633.96857A57.83475,57.83475,0,0,0,408.55554,611c.63922-11.33112-2.86484-13.07141-4.48-31.36-.71451-8.09045-.61734-14.41436-2.6311-25.97332-1.15381-6.62281-2.66016-13.01013-7.7778-15.77777a11.8081,11.8081,0,0,0-5.77777-1.33338" transform="translate(-90.37379 -267.78531)"/><path class="cls-3" d="M427.51852,611.37036" transform="translate(-90.37379 -267.78531)"/><path class="cls-3" d="M573.3158,362.65564A307.54365,307.54365,0,0,0,587.37036,329c5.96369-17.04233,6.16364-22.37735,12.14813-27.55554C606.4,295.49017,613.52466,296.15067,637,294.33334c14.04089-1.087,26.13171-2.45654,35.70367-3.7037" transform="translate(-90.37379 -267.78531)"/><path class="cls-3" d="M415,626.11108q3.11111-9,6.22223-18,.33334-30.2222.66666-60.44439l-1.77778-26.44446" transform="translate(-90.37379 -267.78531)"/><line class="cls-3" x1="349.88434" y1="282.25181" x2="406.68166" y2="250.56306"/><line class="cls-3" x1="458.03469" y1="212.98045" x2="531.63312" y2="167.35137"/><ellipse class="cls-6" cx="192.62621" cy="323.68582" rx="48" ry="70.2489"/></svg>